<?xml version="1.0" encoding="UTF-8" standalone="no"?>
<!DOCTYPE svg PUBLIC "-//W3C//DTD SVG 1.1//EN" "http://www.w3.org/Graphics/SVG/1.1/DTD/svg11.dtd">
<svg width="100%" height="100%" viewBox="0 0 893 239" version="1.1" xmlns="http://www.w3.org/2000/svg" xmlns:xlink="http://www.w3.org/1999/xlink" xml:space="preserve" xmlns:serif="http://www.serif.com/" style="fill-rule:evenodd;clip-rule:evenodd;stroke-linejoin:round;stroke-miterlimit:1.41421;">
    <g id="g90952" transform="matrix(1,0,0,1,-1833.43,2381)">
        <path id="path90542" d="M2090.04,-2311.39C2078.6,-2310.63 2065.81,-2317.31 2055.85,-2329.21C2055.36,-2329.8 2054.6,-2330.09 2053.83,-2329.96C2053.09,-2329.83 2052.45,-2329.31 2052.17,-2328.6C2048.48,-2319.04 2031.34,-2307.45 2020.55,-2307.18C2019.5,-2307.18 2018.62,-2306.39 2018.46,-2305.35C2018.29,-2304.34 2018.89,-2303.34 2019.88,-2302.99C2026.01,-2300.8 2029.21,-2293 2029.21,-2286.44L2029.21,-2240.85C2029.21,-2232.66 2026.86,-2228.59 2019.48,-2224.1C2018.54,-2223.53 2018.17,-2222.35 2018.62,-2221.36C2019.06,-2220.35 2020.18,-2219.84 2021.22,-2220.16C2028.26,-2222.28 2049.37,-2206.58 2052.15,-2198.72C2052.4,-2197.99 2053.04,-2197.45 2053.81,-2197.31C2054.56,-2197.18 2055.35,-2197.45 2055.85,-2198.06C2065.98,-2210.15 2078.44,-2216.66 2090.04,-2215.88C2090.64,-2215.84 2091.23,-2216.05 2091.67,-2216.45C2092.11,-2216.87 2092.35,-2217.43 2092.35,-2218.04L2092.35,-2227.05C2092.35,-2227.64 2092.11,-2228.2 2091.7,-2228.59C2091.27,-2229 2090.7,-2229.23 2090.09,-2229.2C2083.16,-2228.93 2075.71,-2227.33 2068.41,-2224.78C2066.25,-2228.68 2061.21,-2233.61 2056.96,-2235.09L2056.96,-2292.35C2057.42,-2292.62 2057.87,-2292.86 2057.87,-2292.86C2062.2,-2295.25 2066.53,-2297.84 2068.63,-2303.01C2070.43,-2302.49 2073.06,-2301.7 2073.06,-2301.7C2078.76,-2299.89 2084.65,-2298.03 2090.42,-2298.66C2091.53,-2298.8 2092.35,-2299.72 2092.35,-2300.84L2092.35,-2309.23C2092.35,-2309.83 2092.11,-2310.4 2091.67,-2310.8C2091.23,-2311.22 2090.65,-2311.43 2090.04,-2311.39" style="fill-rule:nonzero;"/>
        <path id="path90546" d="M2018.64,-2170.37C2014.57,-2171.23 2008.97,-2181.24 2008.97,-2186.24L2008.97,-2341.38C2013.92,-2343.28 2023.87,-2349.17 2025.6,-2353.4C2025.72,-2353.66 2025.77,-2353.94 2025.77,-2354.21C2025.77,-2354.68 2025.63,-2355.12 2025.34,-2355.5C2024.9,-2356.11 2024.17,-2356.43 2023.42,-2356.39C2011.38,-2355.35 1995.14,-2366.45 1988.06,-2374.82C1987.6,-2375.36 1987.13,-2375.89 1986.42,-2375.83C1985.7,-2375.77 1985.29,-2375.62 1984.93,-2374.99L1982.25,-2370.31L1981.58,-2368.58C1977.94,-2362.86 1973.11,-2360.52 1967.5,-2357.82C1967.5,-2357.82 1963.37,-2355.66 1961.81,-2354.86C1958.05,-2357.21 1954.69,-2358.3 1951.5,-2359.14C1945.36,-2360.74 1939.03,-2362.42 1927.4,-2374.89C1926.97,-2375.36 1926.35,-2375.62 1925.7,-2375.58C1925.07,-2375.55 1924.49,-2375.24 1924.1,-2374.73C1914.16,-2361.74 1901.51,-2357.09 1886.87,-2351.8C1886.68,-2353.6 1886.49,-2355.45 1886.49,-2355.45C1886.42,-2356.11 1886.15,-2356.3 1885.58,-2356.66C1884.71,-2357.19 1883.56,-2359.19 1882.43,-2361.14C1879.44,-2366.35 1874.9,-2374.24 1864.9,-2375.57C1864.33,-2375.64 1863.71,-2375.47 1863.25,-2375.08L1838.65,-2354.69C1838.15,-2354.26 1837.87,-2353.64 1837.87,-2353.02C1837.87,-2352.78 1837.9,-2352.52 1837.99,-2352.28C1838.3,-2351.42 1839.11,-2350.84 1840.03,-2350.84C1855.73,-2350.84 1858.27,-2343.52 1858.27,-2326.01L1858.27,-2186.72C1857.28,-2185.3 1856.88,-2183.67 1856.75,-2182.34L1856.54,-2180.77C1856.53,-2180.77 1854.69,-2177.22 1854.69,-2177.22C1854.69,-2177.22 1853.49,-2175.33 1853,-2174.58C1852.47,-2174.19 1848.37,-2171.21 1848.37,-2171.21C1847.81,-2170.8 1847.41,-2170.21 1847.39,-2169.53L1847.39,-2169.49C1847.39,-2168.81 1847.66,-2168.21 1848.23,-2167.81L1859.45,-2159.52C1859.45,-2159.52 1864.47,-2155.97 1864.54,-2155.93C1864.55,-2155.87 1866.17,-2154.13 1866.17,-2154.13C1868.97,-2151.14 1871.43,-2148.56 1871.46,-2146.02C1871.48,-2144.95 1872.28,-2144.05 1873.35,-2143.92C1874.4,-2143.75 1875.41,-2144.41 1875.71,-2145.44C1879.06,-2156.87 1885.44,-2160.05 1895.11,-2164.87L1898,-2166.31C1898.83,-2166.73 1899.29,-2167.63 1899.17,-2168.53C1899.06,-2169.45 1898.38,-2170.19 1897.47,-2170.37C1892.96,-2171.32 1888.38,-2181.25 1888.38,-2186.24L1888.38,-2326.01C1888.38,-2336.1 1896.27,-2340.7 1903.6,-2340.7C1910.94,-2340.7 1918.84,-2336.1 1918.84,-2326.01L1918.84,-2186.24C1918.84,-2179.45 1913.75,-2173.41 1908.98,-2170.01C1908.29,-2169.54 1907.94,-2168.7 1908.09,-2167.9C1908.22,-2167.07 1908.82,-2166.41 1909.62,-2166.17C1921.26,-2162.75 1924.29,-2157.62 1929.79,-2148.27L1931.75,-2144.94C1932.25,-2144.1 1933.25,-2143.71 1934.19,-2143.96C1935.13,-2144.21 1935.78,-2145.08 1935.78,-2146.06L1935.78,-2147.16C1944.64,-2160.6 1949.46,-2162.74 1952.95,-2164.22C1954.93,-2165.05 1956.81,-2165.83 1958.67,-2168.05C1958.99,-2168.46 1959.18,-2168.95 1959.18,-2169.45C1959.18,-2169.66 1959.15,-2169.86 1959.11,-2170.05C1958.89,-2170.76 1958.36,-2171.29 1957.66,-2171.52C1953.49,-2172.85 1949.59,-2181.67 1949.59,-2186.24L1949.59,-2326.01C1949.59,-2331.17 1951.49,-2335.14 1955.07,-2337.49C1959.51,-2340.4 1966.32,-2340.51 1972.53,-2337.92C1973.23,-2336.96 1974.92,-2334.67 1974.92,-2334.67C1976.99,-2332.12 1978.24,-2330.59 1978.24,-2326.01L1978.24,-2186.24C1978.24,-2180.58 1974.96,-2173.3 1970.06,-2171.49C1969.29,-2171.2 1968.64,-2170.6 1968.54,-2169.79C1968.54,-2169.67 1968.52,-2169.56 1968.52,-2169.48C1968.52,-2168.8 1968.79,-2168.2 1969.39,-2167.81L1979.3,-2161.32C1985.22,-2158.09 1989.52,-2155.77 1992.74,-2145.4C1993.02,-2144.54 1993.8,-2143.93 1994.71,-2143.88C1995.63,-2143.85 1996.47,-2144.37 1996.82,-2145.22C2000.2,-2153.42 2001.84,-2155.07 2005.09,-2158.31C2005.09,-2158.31 2009.13,-2162.65 2009.84,-2163.4C2010.29,-2163.55 2014.5,-2164.91 2014.5,-2164.91L2019.01,-2166.25C2019.91,-2166.51 2020.48,-2167.32 2020.48,-2168.28C2020.48,-2168.3 2020.46,-2168.34 2020.46,-2168.36C2020.42,-2169.36 2019.63,-2170.18 2018.64,-2170.37" style="fill-rule:nonzero;"/>
        <path id="path90550" d="M2150.42,-2349.96C2151.07,-2350.36 2151.45,-2351.08 2151.45,-2351.83L2151.45,-2351.99C2151.4,-2352.79 2150.89,-2353.49 2150.13,-2353.82C2142.17,-2357.18 2128.83,-2362.78 2128.06,-2373.57C2127.99,-2374.5 2127.33,-2375.31 2126.42,-2375.55C2125.52,-2375.76 2124.57,-2375.37 2124.06,-2374.58L2121.43,-2370.34C2116.31,-2361.93 2112.58,-2355.84 2101.43,-2353.32C2100.43,-2353.1 2099.73,-2352.22 2099.73,-2351.21C2099.73,-2350.2 2100.44,-2349.32 2101.43,-2349.1C2105.66,-2348.16 2109.93,-2338.23 2109.93,-2333.22L2109.93,-2186.24C2109.93,-2180.72 2106.24,-2174.71 2100.75,-2171.29C2100.17,-2170.94 2099.79,-2170.32 2099.74,-2169.62C2099.69,-2168.94 2099.96,-2168.26 2100.48,-2167.81C2104.17,-2164.63 2107.59,-2162.84 2110.59,-2161.25C2116.39,-2158.2 2120.57,-2156.01 2123.83,-2145.4C2124.08,-2144.55 2124.89,-2143.93 2125.79,-2143.88C2126.69,-2143.85 2127.53,-2144.37 2127.9,-2145.21C2133.55,-2158.63 2136.9,-2161.01 2150.08,-2166.25C2150.79,-2166.51 2151.1,-2167.29 2151.22,-2168.05C2151.23,-2168.11 2151.23,-2168.2 2151.23,-2168.28C2151.23,-2168.98 2150.78,-2169.76 2150.24,-2170.19L2146.25,-2173.49C2146.25,-2173.49 2144.13,-2175.39 2143.33,-2176.1C2142.94,-2177.14 2141.84,-2180.09 2141.84,-2180.09C2140.88,-2182.24 2140.06,-2184.1 2140.06,-2186.24L2140.06,-2333.22C2140.06,-2339.95 2143.74,-2345.9 2150.42,-2349.96" style="fill-rule:nonzero;"/>
        <path id="path90554" d="M2252.96,-2146.07L2252.96,-2146.08C2252.99,-2145.89 2252.99,-2145.71 2253.03,-2145.53C2252.99,-2145.71 2252.96,-2145.89 2252.96,-2146.07M2282.77,-2274.47C2272.61,-2267.99 2245.92,-2283.58 2236.78,-2291.66C2236.08,-2292.26 2235.08,-2292.37 2234.28,-2291.92C2234.28,-2291.92 2208.28,-2277.2 2204.59,-2275.11C2204.11,-2276.24 2203.64,-2277.38 2203.64,-2277.38C2201.36,-2283.22 2198.53,-2290.48 2190.65,-2291.58C2190.09,-2291.65 2189.53,-2291.5 2189.09,-2291.18L2165.08,-2273.78C2164.51,-2273.36 2164.18,-2272.71 2164.18,-2272.03C2164.18,-2271.94 2164.18,-2271.85 2164.2,-2271.74C2164.3,-2270.96 2164.83,-2270.3 2165.56,-2270.01C2172.03,-2267.52 2175.97,-2257.52 2178.38,-2237.66C2178.38,-2237.66 2178.37,-2186.37 2178.36,-2176.26C2178.35,-2176.26 2178.34,-2176.27 2178.33,-2176.28C2175.39,-2177.25 2172.53,-2175.16 2169.51,-2172.95L2165.32,-2170.16C2164.57,-2169.67 2164.13,-2168.69 2164.34,-2167.81C2164.53,-2166.93 2165.18,-2166.22 2166.06,-2166.11C2175.27,-2164.89 2185.75,-2154.94 2187.62,-2145.63C2187.83,-2144.6 2188.74,-2143.88 2189.77,-2143.88C2190.8,-2143.88 2191.7,-2144.64 2191.88,-2145.66C2193.7,-2155.7 2201.55,-2160.07 2209.85,-2164.72L2214.88,-2167.59C2215.55,-2167.98 2215.92,-2168.69 2215.92,-2169.46L2215.92,-2169.7C2215.84,-2170.55 2215.22,-2171.26 2214.4,-2171.52C2209.39,-2173.11 2206.33,-2181.16 2206.33,-2186.24C2206.33,-2186.24 2205.75,-2255.07 2205.73,-2257.58C2207.43,-2258.53 2215.47,-2263.09 2217.26,-2264.09C2217.42,-2263.97 2217.68,-2263.8 2217.68,-2263.8C2224.07,-2259.51 2230.74,-2255.24 2238.58,-2254.06L2238.58,-2186.24C2238.58,-2180.95 2236.24,-2174.26 2229.69,-2171.46C2228.93,-2171.12 2228.41,-2170.39 2228.37,-2169.55L2228.37,-2169.45C2228.37,-2168.67 2228.79,-2167.94 2229.47,-2167.57L2235.16,-2164.43C2243.92,-2159.59 2243.92,-2159.59 2246.6,-2155.16L2253.36,-2144.8C2253.93,-2143.93 2254.99,-2143.68 2255.97,-2144.07C2256.8,-2144.39 2257.28,-2145.26 2257.28,-2146.13C2257.28,-2146.28 2257.28,-2146.44 2257.24,-2146.58C2257.23,-2146.64 2257.23,-2146.73 2257.23,-2146.82C2257.23,-2149.89 2266.48,-2161.01 2270.13,-2163.45L2274.22,-2164.83L2278.91,-2166.31C2279.76,-2166.59 2280.19,-2167.28 2280.26,-2168.15L2280.26,-2168.28C2280.26,-2169.12 2279.64,-2169.83 2278.9,-2170.19C2273.51,-2172.85 2269.31,-2179.88 2269.31,-2186.24L2269.31,-2257.55C2274.18,-2260.13 2283.84,-2266.74 2285.94,-2271.8C2286.07,-2272.06 2286.12,-2272.35 2286.12,-2272.63C2286.12,-2273.26 2285.84,-2273.87 2285.34,-2274.28C2284.61,-2274.89 2283.58,-2274.97 2282.77,-2274.47" style="fill-rule:nonzero;"/>
        <path id="path90566" d="M2352.94,-2313.19L2336.49,-2313.19L2336.49,-2373.41C2336.49,-2374.27 2336.02,-2375.03 2335.26,-2375.37C2334.48,-2375.75 2333.58,-2375.62 2332.94,-2375.08L2306.54,-2352.87C2306.07,-2352.46 2305.76,-2351.87 2305.76,-2351.22L2305.76,-2311.99L2289.33,-2311.99C2288.14,-2311.99 2287.16,-2311.02 2287.16,-2309.83L2287.16,-2300.22C2287.16,-2299.02 2288.14,-2298.07 2289.33,-2298.07L2305.76,-2298.07L2305.76,-2186.24C2305.76,-2180.04 2302.47,-2174.29 2296.49,-2170.01C2295.91,-2169.6 2295.57,-2168.95 2295.57,-2168.24C2295.57,-2168.14 2295.58,-2168.01 2295.6,-2167.9C2295.74,-2167.07 2296.33,-2166.41 2297.13,-2166.17C2305.34,-2163.77 2307.87,-2162.21 2313.25,-2156.27C2314.35,-2152.73 2317.35,-2147.11 2318.67,-2144.93C2319.05,-2144.3 2319.65,-2143.79 2320.4,-2143.79C2321.16,-2143.75 2321.75,-2144.01 2322.18,-2144.64L2327.57,-2152.93C2329.75,-2156.97 2331.83,-2160.78 2336.73,-2164.04C2336.75,-2164.04 2340.72,-2165.5 2340.72,-2165.5L2346.31,-2167.64C2347.14,-2167.94 2347.52,-2168.64 2347.52,-2169.47C2347.52,-2169.57 2347.49,-2169.7 2347.49,-2169.82C2347.38,-2170.8 2346.41,-2171.47 2345.44,-2171.61C2340.67,-2172.25 2336.49,-2181.18 2336.49,-2186.24L2336.49,-2298.65L2352.94,-2298.65C2354.12,-2298.65 2355.09,-2299.62 2355.09,-2300.84L2355.09,-2311.02C2355.09,-2312.21 2354.12,-2313.19 2352.94,-2313.19" style="fill-rule:nonzero;"/>
        <path id="path90570" d="M2626.89,-2374.37C2626.86,-2374.55 2626.86,-2374.73 2626.82,-2374.91C2626.86,-2374.72 2626.89,-2374.55 2626.89,-2374.37M2723.54,-2269.19C2723.27,-2269.88 2722.72,-2270.38 2722,-2270.54L2719.94,-2271.02C2703.06,-2274.96 2696.72,-2276.42 2684.77,-2290.83C2684.25,-2291.48 2683.37,-2291.75 2682.54,-2291.51C2681.72,-2291.28 2681.11,-2290.6 2680.97,-2289.75C2679.51,-2280.24 2652.89,-2270.43 2639.7,-2267.53L2639.7,-2333.22C2639.7,-2341.17 2641.11,-2342.38 2644.16,-2345.07L2649.42,-2350.46C2649.84,-2350.9 2650.16,-2351.34 2650.16,-2351.88C2650.16,-2351.99 2650.16,-2352.08 2650.12,-2352.17C2650,-2352.86 2649.68,-2353.26 2649.04,-2353.56L2643.45,-2356.11L2639.24,-2357.88C2635.43,-2360.15 2633.6,-2363.78 2631.63,-2367.63C2630.16,-2370.51 2628.64,-2373.47 2626.27,-2375.89C2625.57,-2376.6 2624.51,-2376.75 2623.66,-2376.26C2622.96,-2375.88 2622.55,-2375.14 2622.55,-2374.37C2622.55,-2374.2 2622.57,-2374.03 2622.62,-2373.85C2622.7,-2373.53 2622.74,-2373.19 2622.74,-2372.82C2622.74,-2366.69 2610.73,-2357.09 2600.19,-2353.26C2599.34,-2352.93 2598.77,-2352.13 2598.77,-2351.22L2598.77,-2351.19C2598.77,-2350.26 2599.39,-2349.45 2600.24,-2349.16C2600.24,-2349.16 2600.91,-2348.94 2601.42,-2348.77C2601.88,-2348.22 2602.59,-2347.34 2602.59,-2347.34C2606.43,-2342.65 2608.95,-2339.57 2608.95,-2333.22L2608.95,-2186.24C2608.95,-2180.91 2605.85,-2173.93 2600.09,-2171.46C2599.37,-2171.13 2598.72,-2170.55 2598.65,-2169.78C2598.64,-2169.67 2598.64,-2169.57 2598.64,-2169.49C2598.64,-2168.83 2598.89,-2168.28 2599.45,-2167.88L2608.42,-2161.68C2613.98,-2158.55 2618.77,-2155.87 2622.27,-2145.37C2622.59,-2144.44 2623.5,-2143.82 2624.49,-2143.88C2625.47,-2143.96 2626.28,-2144.7 2626.46,-2145.68C2628.18,-2155.22 2636.71,-2159.73 2643.57,-2163.37L2648.98,-2166.46C2649.54,-2166.79 2649.89,-2167.29 2649.98,-2167.95C2650,-2168.05 2650,-2168.14 2650,-2168.21C2650,-2168.78 2649.76,-2169.27 2649.36,-2169.67L2645.64,-2173.57C2641.93,-2177.23 2639.7,-2179.44 2639.7,-2186.24L2639.7,-2250.92C2649.71,-2252.07 2653.79,-2253.53 2656.13,-2254.42C2659.04,-2255.54 2659.38,-2255.57 2673.15,-2251.63L2673.15,-2186.24C2673.15,-2180.2 2668.74,-2173.29 2662.89,-2170.16C2662.19,-2169.78 2661.75,-2169.05 2661.75,-2168.24C2661.75,-2168.14 2661.75,-2168.01 2661.77,-2167.91C2661.92,-2167 2662.63,-2166.28 2663.54,-2166.12C2673.39,-2164.45 2683.29,-2155.07 2685.18,-2145.63C2685.38,-2144.6 2686.3,-2143.88 2687.33,-2143.88C2688.36,-2143.88 2689.26,-2144.64 2689.44,-2145.66C2691.4,-2156.41 2701.16,-2161.37 2707.62,-2164.66L2713.01,-2168.11C2713.58,-2168.47 2713.76,-2168.91 2713.76,-2169.49C2713.76,-2169.66 2713.75,-2169.84 2713.72,-2170.06C2713.58,-2170.92 2712.68,-2171.36 2711.81,-2171.57C2707.71,-2172.53 2703.89,-2181.42 2703.89,-2186.24L2703.89,-2252.72C2705.05,-2253.34 2706.73,-2254.21 2706.73,-2254.21C2713.13,-2257.51 2718.18,-2260.11 2723.26,-2267.16C2723.54,-2267.54 2723.69,-2267.99 2723.69,-2268.44C2723.69,-2268.68 2723.62,-2268.94 2723.54,-2269.19" style="fill-rule:nonzero;"/>
        <path id="path90574" d="M2433.55,-2246.51L2433.55,-2171.9C2429.15,-2174.32 2418.16,-2180.36 2418.16,-2180.36C2418.16,-2180.36 2404.08,-2188.27 2400.09,-2190.52L2400.09,-2263C2405.4,-2258.96 2411.29,-2255.76 2416.24,-2253.61C2421.73,-2250.76 2427.82,-2248.28 2433.55,-2246.51M2469.44,-2171.56C2467.37,-2173.66 2464.27,-2176.81 2464.27,-2182.05L2463.9,-2193.03C2463.2,-2210.26 2460.99,-2262.68 2469.75,-2264.49C2470.91,-2264.74 2471.67,-2265.88 2471.44,-2267.03C2471.22,-2268.2 2470.09,-2268.98 2468.94,-2268.77C2458.13,-2266.87 2429.75,-2281.82 2421.09,-2290.93C2420.34,-2291.72 2419.11,-2291.83 2418.22,-2291.16L2415.82,-2289.37C2397.33,-2280.74 2380.5,-2276.14 2359.91,-2274.19C2358.81,-2274.08 2357.94,-2273.14 2357.94,-2272.03L2357.94,-2262.43C2357.94,-2261.24 2358.92,-2260.26 2360.11,-2260.26L2368.76,-2260.26L2368.76,-2189.13C2368.78,-2188.6 2368.78,-2188 2368.78,-2187.37C2368.78,-2181.71 2368.34,-2172.65 2363.27,-2171.57C2362.36,-2171.39 2361.69,-2170.63 2361.57,-2169.72C2361.55,-2169.63 2361.55,-2169.55 2361.55,-2169.45C2361.55,-2168.64 2362.01,-2167.88 2362.75,-2167.51C2366.44,-2165.69 2370.32,-2165.11 2374.04,-2164.56L2381.07,-2163.18C2393.26,-2159.46 2406.58,-2152.92 2415.82,-2146.11C2416.14,-2145.92 2418.54,-2144.72 2418.54,-2144.72C2419.5,-2144.23 2420.65,-2144.53 2421.28,-2145.39C2427.66,-2154.33 2458.15,-2165.8 2469.37,-2166.08C2470.15,-2166.11 2471.04,-2166.11 2471.4,-2166.79C2471.77,-2167.49 2471.9,-2167.9 2471.45,-2168.56L2469.44,-2171.56Z" style="fill-rule:nonzero;"/>
        <path id="path90578" d="M2585.94,-2215.46C2585.34,-2215.2 2584.67,-2215.25 2584.05,-2215.42C2584.75,-2215.33 2585.46,-2215.25 2585.94,-2215.46M2584.1,-2213.22L2587.05,-2216.62C2587.62,-2217.26 2587.28,-2217.81 2586.95,-2218.58C2586.6,-2219.35 2585.37,-2219.5 2584.53,-2219.52C2581.44,-2219.57 2564.93,-2231.88 2560.74,-2235.81C2560.14,-2236.37 2559.28,-2236.55 2558.5,-2236.27C2558.5,-2236.27 2527.42,-2224.81 2522.44,-2222.95L2522.44,-2255.11C2543.98,-2245.93 2558.2,-2248 2575.1,-2263.22L2576.29,-2264.23C2578.79,-2266.33 2582.23,-2269.19 2582.43,-2272.5C2582.45,-2273.12 2582.21,-2273.75 2581.75,-2274.18C2581.33,-2274.62 2580.71,-2274.84 2580.1,-2274.8C2557.83,-2273.18 2547.26,-2274.18 2532.09,-2290.88C2531.68,-2291.34 2531.11,-2291.59 2530.5,-2291.59C2529.88,-2291.59 2529.31,-2291.35 2528.89,-2290.9C2518.84,-2280.16 2502.09,-2268.86 2488.46,-2268.8L2487.29,-2268.8C2486.09,-2268.8 2485.12,-2267.85 2485.11,-2266.67L2485.11,-2266.63C2485.11,-2265.47 2486.02,-2264.51 2487.18,-2264.47C2487.21,-2264.46 2487.55,-2264.46 2487.72,-2264.46C2490.05,-2263.04 2491.09,-2261.07 2491.09,-2257.63L2491.58,-2249.46C2491.86,-2246.38 2492.13,-2243.2 2492.13,-2240.13C2492.13,-2233.78 2490.95,-2227.93 2486.07,-2224.64C2485.46,-2224.23 2485.11,-2223.54 2485.11,-2222.85C2485.11,-2222.62 2485.14,-2222.43 2485.2,-2222.21C2485.48,-2221.3 2486.31,-2220.68 2487.29,-2220.68L2488.4,-2220.68C2489.18,-2220.15 2491.14,-2218.77 2491.14,-2218.77C2499.68,-2212.87 2501.22,-2211.83 2508.26,-2201.25C2508.81,-2200.41 2509.88,-2200.06 2510.83,-2200.41C2510.83,-2200.41 2545.99,-2213.61 2551.09,-2215.52L2551.09,-2179.56C2540.81,-2186.54 2525.62,-2189.72 2510.66,-2187.46C2496.56,-2185.33 2485.18,-2178.74 2479.43,-2169.38C2479.01,-2168.69 2479.01,-2167.81 2479.45,-2167.11C2479.87,-2166.42 2480.66,-2166.01 2481.48,-2166.08C2499.05,-2167.69 2517.04,-2155.21 2529.03,-2144.44C2529.88,-2143.67 2531.2,-2143.71 2532.01,-2144.51C2547.02,-2159.53 2565.31,-2166.97 2584.96,-2166.08C2585.85,-2166.05 2586.74,-2166.5 2587.1,-2167.31C2587.47,-2168.11 2587.34,-2169 2586.72,-2169.63L2583.74,-2172.63C2582.19,-2174.02 2581.81,-2174.35 2581.81,-2178.46L2581.81,-2207.24C2581.81,-2211.58 2582.83,-2212.31 2584.1,-2213.22" style="fill-rule:nonzero;"/>
        <path id="path90582" d="M2695.23,-2363.4L2698.27,-2363.4C2699.89,-2363.4 2701.97,-2363.09 2701.97,-2361.16C2701.97,-2358.95 2700.45,-2358.65 2698.43,-2358.65L2695.23,-2358.65L2695.23,-2363.4ZM2691.66,-2348.11L2695.23,-2348.11L2695.23,-2355.84L2697.48,-2355.84L2701.9,-2348.11L2705.66,-2348.11L2700.81,-2356.02C2703.47,-2356.24 2705.57,-2357.54 2705.57,-2360.85C2705.57,-2364.78 2703.01,-2366.2 2698.48,-2366.2L2691.66,-2366.2L2691.66,-2348.11ZM2685.91,-2357.14C2685.91,-2364.49 2691.31,-2369.8 2698.08,-2369.8C2704.8,-2369.8 2710.28,-2364.49 2710.28,-2357.14C2710.28,-2349.75 2704.8,-2344.4 2698.08,-2344.4C2691.31,-2344.4 2685.91,-2349.75 2685.91,-2357.14M2681.49,-2357.14C2681.49,-2347.29 2689.34,-2340.94 2698.08,-2340.94C2706.86,-2340.94 2714.68,-2347.29 2714.68,-2357.14C2714.68,-2366.95 2706.86,-2373.27 2698.08,-2373.27C2689.34,-2373.27 2681.49,-2366.95 2681.49,-2357.14"/>
    </g>
</svg>
